Coordinates
version=1
nRows=30
nColumns=38
inDegrees=no

Units are S.I. units (second, meters, Newtons, ...)
If the header above contains a line with 'inDegrees', this indicates whether rotational values are in degrees (yes) or radians (no).

endheader
time	pelvis_tilt	pelvis_list	pelvis_rotation	pelvis_tx	pelvis_ty	pelvis_tz	hip_flexion_r	hip_adduction_r	hip_rotation_r	knee_angle_r	ankle_angle_r	subtalar_angle_r	mtp_angle_r	hip_flexion_l	hip_adduction_l	hip_rotation_l	knee_angle_l	ankle_angle_l	subtalar_angle_l	mtp_angle_l	lumbar_extension	lumbar_bending	lumbar_rotation	arm_flex_r	arm_add_r	arm_rot_r	elbow_flex_r	pro_sup_r	wrist_flex_r	wrist_dev_r	arm_flex_l	arm_add_l	arm_rot_l	elbow_flex_l	pro_sup_l	wrist_flex_l	wrist_dev_l
18.4	-0.0820205	0.157289	1.48314	0.675629	1.0013	-0.937936	-0.059504	0.00855649	0.0449857	0.187563	0.110854	-0.0243773	0	0.472632	-0.157906	-0.197503	0.692182	0.0661142	-0.23254	0	-0.280489	-0.0266973	0.157605	0.00595829	-0.210327	0.123891	1.18646	1.30023	0	0.048846	-0.0309532	-0.121793	-0.106317	0.695732	1.09208	0	0.048846
18.41	-0.0817963	0.157716	1.48111	0.675723	1.00121	-0.938003	-0.0597528	0.00800011	0.0440545	0.187966	0.114435	-0.0174614	0	0.480174	-0.160757	-0.195931	0.72815	0.0742932	-0.254331	0	-0.280763	-0.0263551	0.157913	0.00575868	-0.210919	0.124549	1.18776	1.30807	0	0.048846	-0.0311693	-0.121785	-0.107334	0.694884	1.09416	0	0.048846
18.42	-0.0811654	0.158951	1.47887	0.675858	1.00118	-0.938107	-0.0612205	0.0078825	0.0430444	0.187553	0.117628	-0.0111132	0	0.487078	-0.164295	-0.194214	0.76713	0.0853335	-0.270451	0	-0.281844	-0.0257335	0.15817	0.00564781	-0.211644	0.126353	1.18875	1.30971	0	0.048846	-0.0314905	-0.121695	-0.10871	0.694427	1.09308	0	0.048846
18.43	-0.0803839	0.160838	1.47609	0.676052	1.00122	-0.938285	-0.0633991	0.00777638	0.0413486	0.187323	0.120033	-0.00414552	0	0.492673	-0.168426	-0.19352	0.807296	0.100109	-0.283412	0	-0.283332	-0.0251404	0.15892	0.00539657	-0.212354	0.127707	1.19024	1.31015	0	0.048846	-0.0321338	-0.121879	-0.109015	0.694422	1.09169	0	0.048846
18.44	-0.0800228	0.162415	1.47325	0.676211	1.00124	-0.93841	-0.064849	0.00722747	0.0400851	0.187809	0.122209	0.00209116	0	0.49958	-0.172358	-0.192462	0.852097	0.110669	-0.296154	0	-0.284537	-0.0249085	0.1599	0.00506895	-0.213003	0.128669	1.1916	1.31011	0	0.048846	-0.0326059	-0.122302	-0.108226	0.694428	1.09117	0	0.048846
18.45	-0.0794609	0.163579	1.47018	0.676284	1.00128	-0.938579	-0.0660906	0.00683888	0.0394899	0.187838	0.123899	0.00774108	0	0.506813	-0.176217	-0.190594	0.898381	0.120588	-0.307709	0	-0.285334	-0.0242351	0.160703	0.00476994	-0.213788	0.130212	1.1922	1.31053	0	0.048846	-0.032788	-0.121975	-0.109495	0.693252	1.09149	0	0.048846
18.46	-0.0793846	0.164329	1.46658	0.67633	1.0013	-0.9388	-0.0668825	0.00587455	0.0391784	0.187807	0.125848	0.0133786	0	0.51348	-0.179574	-0.189562	0.94395	0.133244	-0.316293	0	-0.28535	-0.0240119	0.161828	0.00449577	-0.214318	0.130827	1.19235	1.31228	0	0.048846	-0.0330391	-0.121283	-0.111401	0.691851	1.09157	0	0.048846
18.47	-0.0793821	0.164912	1.46275	0.676338	1.00134	-0.938956	-0.0671785	0.00478919	0.0393833	0.188172	0.127184	0.0183515	0	0.520437	-0.182895	-0.188508	0.991863	0.14218	-0.322044	0	-0.285204	-0.0237849	0.163417	0.0043677	-0.214913	0.130337	1.19245	1.3155	0	0.048846	-0.0331623	-0.120585	-0.112163	0.691018	1.0915	0	0.048846
18.48	-0.0799707	0.165955	1.45907	0.676305	1.00147	-0.939194	-0.0677169	0.00294373	0.0397916	0.189093	0.128991	0.0238507	0	0.526369	-0.185351	-0.18734	1.04035	0.150768	-0.32568	0	-0.285353	-0.0241049	0.164537	0.00430591	-0.215797	0.130808	1.19218	1.31932	0	0.048846	-0.0334412	-0.119879	-0.113067	0.690609	1.0914	0	0.048846
18.49	-0.0811105	0.167282	1.45597	0.676281	1.00165	-0.939591	-0.0690625	0.00058356	0.0396068	0.189391	0.131749	0.0298187	0	0.53154	-0.187025	-0.186121	1.08935	0.163155	-0.324568	0	-0.285393	-0.0250017	0.164547	0.00420451	-0.216431	0.132668	1.19079	1.32218	0	0.048846	-0.034168	-0.119406	-0.114596	0.690316	1.09065	0	0.048846
18.5	-0.0817635	0.168104	1.45309	0.676238	1.00175	-0.939962	-0.0701242	-0.0011269	0.0391064	0.189148	0.131628	0.033035	0	0.537823	-0.189299	-0.18426	1.14171	0.171166	-0.320405	0	-0.284969	-0.0252865	0.164424	0.00409101	-0.216677	0.133672	1.19036	1.31455	0	0.048846	-0.0348744	-0.119044	-0.115956	0.690039	1.09321	0	0.048846
18.51	-0.0831755	0.167448	1.44975	0.676182	1.00163	-0.940306	-0.0676126	-0.0036179	0.038449	0.192409	0.135835	0.0395994	0	0.545126	-0.190898	-0.182747	1.19441	0.181427	-0.312204	0	-0.28271	-0.026167	0.164905	0.00388115	-0.216684	0.132171	1.19003	1.32625	0	0.048846	-0.0360033	-0.119015	-0.115013	0.690849	1.088	0	0.048846
18.52	-0.0815111	0.171266	1.44845	0.676062	1.00214	-0.940791	-0.0745796	-0.00294844	0.0373329	0.187898	0.136149	0.0451858	0	0.546074	-0.192934	-0.178231	1.24338	0.194014	-0.306362	0	-0.285746	-0.0237861	0.163314	0.00398171	-0.217115	0.132976	1.18783	1.32779	0	0.048846	-0.0366938	-0.1187	-0.114225	0.691011	1.08686	0	0.048846
18.53	-0.0756863	0.179058	1.44976	0.675785	1.00326	-0.941396	-0.091929	0.00202572	0.0349967	0.172988	0.123491	0.0444773	0	0.542466	-0.196786	-0.169756	1.29096	0.195889	-0.308765	0	-0.293814	-0.0167189	0.159237	0.00451622	-0.218056	0.134275	1.18551	1.3279	0	0.048846	-0.0365842	-0.11753	-0.114927	0.69035	1.08629	0	0.048846
18.54	-0.0746901	0.181561	1.44936	0.675544	1.00365	-0.941855	-0.0971491	0.00212894	0.0343019	0.169017	0.118242	0.0449022	0	0.544951	-0.197743	-0.164938	1.33998	0.198864	-0.305829	0	-0.295572	-0.0145658	0.156454	0.00457555	-0.218219	0.134511	1.18487	1.32541	0	0.048846	-0.0369548	-0.117089	-0.11548	0.690632	1.09046	0	0.048846
18.55	-0.0763036	0.180569	1.44701	0.675387	1.00353	-0.942215	-0.0940376	-0.000304053	0.0358851	0.173049	0.123111	0.0482395	0	0.550901	-0.197158	-0.162514	1.39117	0.221851	-0.290968	0	-0.293248	-0.0153114	0.155495	0.00410062	-0.217975	0.133718	1.18484	1.32591	0	0.048846	-0.0377188	-0.117068	-0.114821	0.691508	1.08507	0	0.048846
18.56	-0.0759438	0.182851	1.44637	0.675065	1.00382	-0.942547	-0.0974499	-0.000935017	0.0353367	0.171846	0.124752	0.0513212	0	0.553174	-0.196691	-0.158033	1.44176	0.235569	-0.288235	0	-0.295104	-0.0138678	0.153197	0.00402337	-0.218029	0.132789	1.1845	1.32528	0	0.048846	-0.0377045	-0.116911	-0.113747	0.692494	1.08971	0	0.048846
18.57	-0.0788189	0.180979	1.44491	0.674669	1.00356	-0.942754	-0.0914296	-0.00487768	0.0347129	0.179113	0.130085	0.0550689	0	0.560263	-0.19449	-0.155775	1.49099	0.238263	-0.281102	0	-0.292126	-0.0153977	0.151581	0.00363458	-0.21791	0.131644	1.18497	1.3243	0	0.048846	-0.038033	-0.117145	-0.11132	0.694682	1.08794	0	0.048846
18.58	-0.0857072	0.173379	1.44099	0.67425	1.00252	-0.942989	-0.0730765	-0.0128992	0.0362038	0.197017	0.142077	0.0597846	0	0.573054	-0.189843	-0.158062	1.54291	0.246673	-0.282411	0	-0.282045	-0.0208493	0.152018	0.00246056	-0.217844	0.130281	1.18602	1.32732	0	0.048846	-0.0391431	-0.117345	-0.109935	0.696581	1.08365	0	0.048846
18.59	-0.0887651	0.171664	1.43884	0.673871	1.00213	-0.94348	-0.0675788	-0.0169584	0.0377649	0.203954	0.147881	0.0613268	0	0.578083	-0.187353	-0.15796	1.59399	0.253649	-0.288073	0	-0.278603	-0.0227275	0.151034	0.00149993	-0.218079	0.13023	1.18563	1.3261	0	0.048846	-0.0397048	-0.117303	-0.109976	0.698014	1.08774	0	0.048846
18.6	-0.0855647	0.176394	1.44003	0.673568	1.00263	-0.944138	-0.0780391	-0.0144884	0.0360027	0.195854	0.145228	0.0634765	0	0.575711	-0.189292	-0.150814	1.63872	0.259617	-0.26422	0	-0.283	-0.0183267	0.147606	0.000976086	-0.218292	0.129679	1.18493	1.32732	0	0.048846	-0.0394289	-0.117173	-0.109296	0.699679	1.08782	0	0.048846
18.61	-0.0791463	0.184219	1.44247	0.673187	1.00354	-0.944629	-0.0948595	-0.00862937	0.0337877	0.18223	0.135177	0.0622299	0	0.569752	-0.192958	-0.140846	1.68211	0.272354	-0.234812	0	-0.291806	-0.0106146	0.143458	0.00126265	-0.219001	0.128542	1.18519	1.32683	0	0.048846	-0.0380662	-0.116399	-0.108428	0.701667	1.0802	0	0.048846
18.62	-0.0756727	0.188433	1.44341	0.67272	1.00398	-0.944931	-0.103245	-0.00574854	0.0334858	0.17619	0.129939	0.0621788	0	0.567504	-0.194614	-0.134705	1.72667	0.281188	-0.2204	0	-0.296543	-0.00581389	0.140813	0.0014201	-0.219862	0.127632	1.18527	1.3272	0	0.048846	-0.0364454	-0.115643	-0.108447	0.70305	1.08729	0	0.048846
18.63	-0.0787401	0.184136	1.44107	0.672417	1.00328	-0.945159	-0.0932273	-0.00935853	0.0353292	0.186393	0.138575	0.065101	0	0.574127	-0.193503	-0.134435	1.77031	0.289928	-0.203025	0	-0.29085	-0.00784898	0.141142	0.000385529	-0.219829	0.126547	1.18565	1.32539	0	0.048846	-0.0361411	-0.115898	-0.107381	0.705778	1.07589	0	0.048846
18.64	-0.0819039	0.180906	1.43935	0.672091	1.00272	-0.945369	-0.0850141	-0.0132352	0.0356667	0.195178	0.146651	0.0678511	0	0.579072	-0.191833	-0.134108	1.81151	0.294276	-0.196366	0	-0.28647	-0.0101051	0.14094	-0.000317515	-0.219754	0.125423	1.18574	1.3256	0	0.048846	-0.0355081	-0.116393	-0.107732	0.708313	1.0852	0	0.048846
18.65	-0.0774916	0.185165	1.44069	0.671722	1.0032	-0.94575	-0.095661	-0.00930871	0.0336818	0.185389	0.141545	0.0692345	0	0.575248	-0.194714	-0.127026	1.85003	0.301758	-0.187405	0	-0.291245	-0.00466096	0.138543	-0.000260766	-0.22046	0.124943	1.18548	1.32527	0	0.048846	-0.0337927	-0.115794	-0.107902	0.710632	1.08377	0	0.048846
18.66	-0.0743744	0.187879	1.4415	0.671434	1.00349	-0.94613	-0.103119	-0.00659891	0.0319181	0.178299	0.138179	0.0711954	0	0.572775	-0.197116	-0.121171	1.88686	0.311859	-0.176231	0	-0.293995	-0.000617845	0.136744	-0.000390961	-0.220723	0.124388	1.18502	1.32643	0	0.048846	-0.0323048	-0.115286	-0.107797	0.713631	1.06963	0	0.048846
18.67	-0.075052	0.186338	1.44065	0.671181	1.00324	-0.946386	-0.100211	-0.00777442	0.0313823	0.181059	0.141275	0.0735734	0	0.575068	-0.197338	-0.119528	1.92209	0.318276	-0.172833	0	-0.291709	-0.000450927	0.136379	-0.000672692	-0.220568	0.123984	1.18352	1.3269	0	0.048846	-0.0310672	-0.11516	-0.109015	0.716123	1.06882	0	0.048846
18.68	-0.0747045	0.186223	1.44028	0.670935	1.00315	-0.946654	-0.10051	-0.0079283	0.0300554	0.180834	0.142355	0.0764013	0	0.575738	-0.198128	-0.117081	1.95514	0.325026	-0.170668	0	-0.29118	0.000617669	0.135686	-0.00073338	-0.220511	0.123812	1.18189	1.32728	0	0.048846	-0.0296269	-0.11499	-0.110444	0.718361	1.06914	0	0.048846
18.69	-0.0746163	0.185764	1.43995	0.67073	1.00304	-0.946835	-0.10005	-0.00821112	0.0290057	0.181161	0.143348	0.0785032	0	0.576599	-0.198831	-0.11452	1.98612	0.33125	-0.170824	0	-0.29044	0.00124398	0.135069	-0.000803753	-0.220299	0.12369	1.1809	1.32732	0	0.048846	-0.0281835	-0.115143	-0.111361	0.721398	1.0689	0	0.048846
